<?xml version="1.0" encoding="utf-8"?>
<!-- Generator: Adobe Illustrator 28.1.0, SVG Export Plug-In . SVG Version: 6.00 Build 0)  -->
<svg version="1.1" id="Calque_1" xmlns="http://www.w3.org/2000/svg" xmlns:xlink="http://www.w3.org/1999/xlink" x="0px" y="0px"
	 viewBox="0 0 213.626 61.984" enable-background="new 0 0 213.626 61.984" xml:space="preserve">
<g>
	<g>
		<g>
			<path d="M184.796,7.312l-0.336-1.079h-2.23l-0.357,1.079h-1.863l2.637-7.251h1.375l2.637,7.251H184.796z M183.38,2.811
				l-0.652,1.935h1.263L183.38,2.811z"/>
			<path d="M196.574,7.312l-2.322-3.646v3.646h-1.782V0.061h1.558l2.322,3.646V0.061h1.782v7.251H196.574z"/>
			<path d="M206.744,7.373c-1.11,0-2.017-0.204-2.75-0.957l1.141-1.141c0.377,0.377,1.038,0.509,1.619,0.509
				c0.703,0,1.039-0.234,1.039-0.652c0-0.173-0.041-0.316-0.143-0.428c-0.092-0.092-0.245-0.163-0.479-0.193l-0.876-0.122
				c-0.642-0.092-1.13-0.306-1.456-0.641c-0.336-0.346-0.499-0.835-0.499-1.456c0-1.324,0.998-2.291,2.647-2.291
				c1.039,0,1.823,0.244,2.444,0.866l-1.12,1.12c-0.377-0.377-0.794-0.428-1.375-0.428c-0.621,0-0.875,0.356-0.875,0.672
				c0,0.092,0.03,0.224,0.142,0.336c0.092,0.092,0.245,0.183,0.499,0.214l0.876,0.122c0.652,0.092,1.12,0.295,1.426,0.601
				c0.387,0.377,0.539,0.916,0.539,1.589C209.544,6.568,208.271,7.373,206.744,7.373z"/>
		</g>
		<g>
			<g>
				<path fill-rule="evenodd" clip-rule="evenodd" fill="#0A0C06" d="M165.451,32.093l5.132,5.132l9.142-9.142
					c6.066-6.066,16.029-6.066,22.095,0c6.066,6.066,6.066,16.029,0,22.095c-6.066,6.066-16.029,6.066-22.095,0L168.678,39.13l0,0
					l-5.132-5.132L152.499,22.95l0,0c-8.478-8.478-22.097-8.879-31.061-1.202l0-14.45h47.926l2.637-7.258h-50.564h-7.257v7.258
					v21.567h0.044l-0.044,0.044l5.132,5.132l5.96-5.96c6.066-6.066,16.029-6.066,22.095,0l11.048,11.048l3.896,3.896l12.283,12.284
					c8.899,8.898,23.46,8.898,32.359,0c8.898-8.898,8.898-23.46,0-32.359c-8.464-8.464-22.052-8.877-31.017-1.238L165.451,32.093z
					 M156.515,41.029l-9.148,9.148c-6.066,6.066-16.029,6.066-22.095,0l-5.96-5.96l-5.132,5.132l5.96,5.959
					c8.898,8.899,23.46,8.898,32.359,0l9.148-9.148L156.515,41.029L156.515,41.029z"/>
			</g>
		</g>
	</g>
	<g>
		<rect y="0.041" fill="#E30613" width="99.476" height="61.904"/>
		<g>
			<g>
				<path fill="#FFFFFF" d="M79.386,26.948c-0.825,1.193-6.282,9.008-6.944,9.956l1.77-9.956h-5.678l0,0h-1.463l0.172-0.37
					c0.325-0.711,1.187-2.597,3.042-2.597h0.948l5.379-4.524h-6.775c-2.02,0-5.548,1.285-7.01,4.371l-1.455,3.12h-2.3l-1.743,3.71
					h2.3l-5.093,10.956h5.699l5.113-10.956h2.735l-1.248,10.247c-0.191,1.913-0.67,2.351-1.138,2.752
					c-0.423,0.362-1.317,0.56-1.835,0.56h-3.037l-2.266,4.877h4.161c1.825,0,3.359-0.32,5.008-1.285
					c1.673-0.994,3.382-2.777,4.188-3.733c0.805-0.955,13.35-17.128,13.35-17.128H79.386z"/>
				<path fill="#FFFFFF" d="M41.052,31.917l5.717-1.26c0.265-0.38,0.804-1.133,1.849-1.374c0.161-0.031,0.498-0.093,0.947-0.093
					c1.271,0,1.763,0.394,1.596,1.258c-0.026,0.254-0.198,0.643-0.27,0.798l-0.064,0.135l-0.143,0.04
					c-0.362,0.1-0.731,0.178-1.086,0.254l-0.228,0.048c-0.837,0.163-1.688,0.276-2.51,0.385l-0.398,0.054
					c-1.519,0.206-3.089,0.419-4.639,1.235c-2.164,1.143-3.243,2.726-3.768,3.852c-0.958,2.054-0.679,3.642,0.763,4.355
					c0.791,0.371,1.766,0.371,2.131,0.371h0.002c1.984,0,3.565-0.569,4.151-0.814c0.645-0.269,1.021-0.485,1.322-0.658l0.599-0.341
					l-0.679,1.455h5.232c-0.058-0.403,0.013-0.776,0.455-1.726l3.927-8.423c0.63-1.347,0.822-1.965,0.825-2.647
					c0.011-1.841-1.673-2.735-5.145-2.735c-2.84,0-5.014,0.499-6.841,1.572c-1.665,0.977-2.475,2.1-2.758,2.523
					C41.635,30.785,41.421,31.186,41.052,31.917z M49.215,34.779c-0.342,0.743-1.056,2.291-3.187,3.228
					c-0.52,0.218-1.134,0.439-1.737,0.439c-0.684,0-0.971-0.259-1.089-0.478c-0.145-0.263-0.134-0.629,0.029-0.979
					c0.179-0.384,0.502-0.67,0.641-0.792c0.836-0.807,3.435-1.46,5.564-1.891L49.215,34.779z"/>
				<path fill="#FFFFFF" d="M38.769,33.859c0.731-1.079,1.412-2.282,1.97-3.479c1.69-3.627,2.006-6.441,0.94-8.359
					c-1.22-2.11-3.749-2.387-6.682-2.515c-1.062-0.035-2.017-0.064-2.972-0.064h-7.492L14.21,41.588l9.731,0.001
					c1.786,0,3.536-0.039,5.314-0.505C32.828,40.176,36.031,37.743,38.769,33.859z M26.118,36.851h-2.985l5.862-12.575h2.876
					c1.438,0,1.942,0.22,2.477,0.684c1.454,1.362-0.102,4.886-0.445,5.616c-0.491,1.064-2.334,4.629-5.41,5.839
					C27.597,36.778,26.92,36.851,26.118,36.851z"/>
				<polygon fill="#FFFFFF" points="26.742,14.719 85.267,14.719 55.775,16.574 				"/>
				<path fill="#FFFFFF" d="M65.432,13.559l2.711-2.035H47.796l0.942,2.035C53.857,13.559,60.314,13.559,65.432,13.559z"/>
				<polygon fill="#FFFFFF" points="55.103,18.12 50.647,17.682 53.044,22.858 60.134,17.536 				"/>
			</g>
			<g>
				<path fill="#FFFFFF" d="M29.087,46.656c-0.111,0.484-0.31,0.911-0.595,1.281c-0.285,0.371-0.637,0.656-1.053,0.856
					c-0.417,0.2-0.875,0.3-1.373,0.3h-1.004l1.819-4.063h0.976c0.525,0,0.892,0.138,1.101,0.415
					C29.166,45.723,29.209,46.126,29.087,46.656z M26.191,48.685c0.384,0,0.741-0.085,1.071-0.254
					c0.33-0.169,0.608-0.409,0.834-0.718c0.227-0.309,0.386-0.663,0.478-1.061c0.092-0.399,0.063-0.7-0.085-0.905
					c-0.148-0.205-0.412-0.307-0.79-0.307h-0.508l-1.462,3.246H26.191z"/>
				<path fill="#FFFFFF" d="M30.097,49.149c-0.35,0-0.601-0.101-0.754-0.303c-0.153-0.202-0.188-0.481-0.105-0.839
					c0.08-0.348,0.228-0.682,0.443-1.002c0.216-0.32,0.461-0.568,0.736-0.746c0.275-0.178,0.553-0.267,0.835-0.267
					c0.291,0,0.495,0.061,0.613,0.185c0.118,0.123,0.152,0.295,0.101,0.515c-0.077,0.334-0.295,0.596-0.655,0.785
					c-0.359,0.19-0.833,0.285-1.421,0.285h-0.094l-0.062,0.222c-0.056,0.243-0.041,0.432,0.044,0.568
					c0.085,0.136,0.251,0.204,0.496,0.204c0.12,0,0.247-0.017,0.381-0.05c0.134-0.033,0.306-0.094,0.515-0.183l-0.094,0.406
					c-0.198,0.082-0.369,0.139-0.513,0.171C30.417,49.133,30.262,49.149,30.097,49.149z M31.131,46.389
					c-0.196,0-0.4,0.087-0.612,0.262c-0.212,0.174-0.4,0.416-0.563,0.725h0.034c0.434,0,0.778-0.055,1.035-0.165
					c0.257-0.11,0.409-0.27,0.457-0.48c0.023-0.098,0.007-0.18-0.047-0.245C31.38,46.422,31.279,46.389,31.131,46.389z"/>
				<path fill="#FFFFFF" d="M33.129,49.149c-0.185,0-0.335-0.046-0.453-0.139c-0.118-0.093-0.195-0.222-0.233-0.389h-0.028
					l-0.035,0.106c-0.017,0.047-0.042,0.111-0.075,0.194c-0.034,0.084-0.261,0.597-0.682,1.54h-0.473l1.977-4.413h0.396
					l-0.208,0.581h0.023c0.437-0.42,0.84-0.631,1.207-0.631c0.261,0,0.445,0.09,0.553,0.271c0.109,0.181,0.125,0.434,0.05,0.76
					c-0.091,0.393-0.24,0.753-0.447,1.081c-0.207,0.328-0.447,0.583-0.722,0.766C33.706,49.058,33.422,49.149,33.129,49.149z
					 M34.298,46.384c-0.183,0-0.389,0.088-0.619,0.264c-0.23,0.176-0.431,0.397-0.604,0.664c-0.173,0.267-0.292,0.54-0.356,0.82
					c-0.047,0.204-0.03,0.36,0.05,0.468c0.08,0.108,0.221,0.162,0.42,0.162c0.188,0,0.381-0.075,0.578-0.225
					c0.197-0.15,0.377-0.364,0.54-0.64c0.163-0.277,0.281-0.572,0.352-0.883C34.757,46.594,34.637,46.384,34.298,46.384z"/>
				<path fill="#FFFFFF" d="M36.949,46.048l-0.874,1.932c-0.072,0.165-0.119,0.294-0.14,0.387c-0.061,0.265,0.048,0.397,0.327,0.397
					c0.167,0,0.345-0.056,0.532-0.167c0.187-0.111,0.367-0.27,0.538-0.478c0.172-0.208,0.323-0.458,0.456-0.751l0.59-1.32h0.474
					l-1.362,3.046h-0.397l0.193-0.564h-0.034c-0.24,0.231-0.455,0.393-0.644,0.483c-0.19,0.091-0.376,0.136-0.557,0.136
					c-0.243,0-0.419-0.064-0.528-0.193c-0.109-0.129-0.136-0.313-0.081-0.552c0.027-0.114,0.084-0.274,0.173-0.478l0.85-1.879
					H36.949z"/>
				<path fill="#FFFFFF" d="M38.977,49.094h-0.479l1.371-3.046h0.479L38.977,49.094z M40.183,45.27
					c0.024-0.104,0.074-0.189,0.149-0.255c0.076-0.066,0.163-0.099,0.26-0.099c0.168,0,0.232,0.084,0.193,0.25
					c-0.024,0.102-0.075,0.188-0.155,0.258c-0.08,0.071-0.162,0.106-0.246,0.106c-0.076,0-0.134-0.023-0.172-0.068
					C40.173,45.417,40.164,45.353,40.183,45.27z"/>
				<path fill="#FFFFFF" d="M42.109,48.23c-0.067,0.289-0.224,0.514-0.471,0.677c-0.248,0.162-0.563,0.243-0.945,0.243
					c-0.322,0-0.596-0.064-0.826-0.192l0.102-0.439c0.115,0.078,0.244,0.138,0.389,0.181c0.144,0.043,0.282,0.064,0.413,0.064
					c0.24,0,0.431-0.047,0.575-0.139c0.143-0.093,0.231-0.211,0.265-0.356c0.025-0.105,0.012-0.194-0.039-0.267
					c-0.05-0.072-0.171-0.171-0.362-0.297c-0.216-0.135-0.361-0.268-0.433-0.397c-0.073-0.13-0.088-0.284-0.047-0.461
					c0.059-0.256,0.202-0.462,0.43-0.618c0.228-0.156,0.499-0.235,0.813-0.235c0.326,0,0.624,0.068,0.894,0.206l-0.242,0.381
					l-0.143-0.07c-0.174-0.08-0.374-0.12-0.6-0.12c-0.177,0-0.325,0.04-0.444,0.121c-0.119,0.08-0.193,0.185-0.223,0.312
					c-0.024,0.104-0.011,0.193,0.04,0.267c0.05,0.074,0.168,0.169,0.352,0.287c0.177,0.111,0.302,0.207,0.372,0.286
					c0.069,0.08,0.116,0.166,0.138,0.257C42.138,48.011,42.136,48.115,42.109,48.23z"/>
				<path fill="#FFFFFF" d="M45.509,49.094h-0.49l1.144-2.538c0.224-0.483,0.385-0.816,0.482-0.998
					c-0.118,0.098-0.273,0.201-0.468,0.308l-0.578,0.306l-0.147-0.353l1.463-0.789h0.425L45.509,49.094z"/>
				<path fill="#FFFFFF" d="M50.757,46.22c-0.083,0.36-0.223,0.736-0.42,1.13c-0.197,0.394-0.415,0.727-0.652,1
					c-0.237,0.273-0.494,0.475-0.771,0.604c-0.278,0.13-0.58,0.194-0.907,0.194c-0.259,0-0.482-0.032-0.668-0.094l0.101-0.439
					c0.235,0.087,0.458,0.131,0.671,0.131c0.384,0,0.725-0.131,1.023-0.392c0.298-0.261,0.572-0.67,0.822-1.226h-0.028
					c-0.129,0.139-0.281,0.249-0.454,0.33c-0.174,0.08-0.355,0.121-0.543,0.121c-0.322,0-0.549-0.091-0.681-0.274
					c-0.133-0.182-0.159-0.45-0.077-0.802c0.065-0.284,0.187-0.543,0.363-0.78c0.177-0.236,0.391-0.42,0.642-0.553
					c0.25-0.132,0.512-0.199,0.786-0.199c0.342,0,0.584,0.106,0.724,0.318S50.851,45.812,50.757,46.22z M49.856,45.367
					c-0.285,0-0.538,0.105-0.76,0.314c-0.222,0.209-0.37,0.478-0.446,0.806c-0.054,0.23-0.042,0.406,0.034,0.528
					c0.075,0.122,0.215,0.183,0.421,0.183c0.145,0,0.283-0.026,0.418-0.079c0.134-0.053,0.254-0.129,0.362-0.227
					c0.107-0.098,0.193-0.204,0.258-0.316c0.065-0.113,0.117-0.253,0.156-0.42c0.056-0.243,0.044-0.435-0.036-0.577
					C50.184,45.438,50.048,45.367,49.856,45.367z"/>
				<path fill="#FFFFFF" d="M50.764,49.094l3.033-3.649h-2.051l0.184-0.414h2.541l-0.166,0.386l-3.028,3.677H50.764z"/>
				<path fill="#FFFFFF" d="M56.743,48.166h-0.665l-0.419,0.928h-0.468l0.425-0.928h-1.871l0.184-0.439l3.006-2.718h0.559
					l-1.221,2.732h0.662L56.743,48.166z M55.808,47.74c0.181-0.408,0.335-0.753,0.462-1.037c0.127-0.284,0.332-0.696,0.617-1.237
					h-0.023c-0.045,0.054-0.128,0.143-0.251,0.268c-0.123,0.125-0.213,0.214-0.269,0.268l-1.921,1.737H55.808z"/>
			</g>
		</g>
	</g>
</g>
</svg>
